<svg width="550" height="90" viewBox="0 0 550 90" fill="none" xmlns="http://www.w3.org/2000/svg">
<path d="M50.8742 68.1694C43.9726 65.606 36.8739 65.2117 30.3667 66.9864C25.8314 68.1695 21.4933 70.5357 17.5495 73.4935L14.7889 75.8598L14.0001 76.6485L15.7748 78.226C15.972 78.226 15.972 78.4232 16.1692 78.6204C16.5636 79.0148 16.958 79.212 17.5495 79.6063L18.7326 80.3951L19.9157 79.4091C20.1129 79.212 20.5073 78.8176 20.9017 78.6204C24.4511 75.6626 28.3948 73.6907 32.5357 72.7048C37.8598 71.3245 43.5782 71.5217 49.2966 73.6907C54.0291 75.4654 63.6914 77.6345 75.3254 72.7048L75.7198 72.5076L76.3113 71.916C76.3113 71.7189 76.5086 71.7188 76.7057 71.5216C77.6917 70.3385 78.6776 69.1554 79.4664 67.7751L83.4101 61.6623L77.1001 65.2116C67.8323 70.3385 59.3532 71.3244 50.8742 68.1694Z" fill="#55B02E"/>
<path d="M23.8595 46.8733C29.1836 45.493 34.902 45.6901 40.6205 47.8592C46.9305 50.2255 63.0998 53.5777 81.2411 37.2111L84.1989 34.2533L84.3961 34.0561L85.1848 33.2674L84.7904 32.2814C84.5932 31.4927 84.1989 30.5067 83.8045 29.5208L82.8186 26.7601L80.8467 28.732C80.6495 29.1264 80.2551 29.3236 79.8607 29.7179C71.1845 38.5914 57.7757 47.662 42.3951 42.1408C35.4936 39.5773 28.3948 39.183 21.8877 40.9576C15.5777 42.7323 10.0564 46.0845 4.92953 50.817V50.6198L1.97172 53.7748C1.97172 53.972 1.77456 53.972 1.57738 54.1692L0.985779 54.7608L1.18298 55.5495C1.38017 56.5354 1.77453 57.5214 1.97172 58.5073L3.15485 61.6623L5.12673 59.0989C5.32391 58.7045 5.71828 58.5073 5.91546 58.113C10.0564 54.3664 15.7748 49.0423 23.8595 46.8733Z" fill="#55B02E"/>
<path d="M4.73255 43.3239C9.26786 38.5914 14.3947 35.6336 19.9159 34.0561C25.24 32.6757 30.9584 32.8729 36.6769 35.042C54.4237 41.5492 69.8044 30.9011 76.5087 25.1826L79.0722 22.6192L80.0581 21.8304L79.2694 20.6473C78.6778 20.0558 78.2834 19.267 77.6919 18.4783L76.5087 16.9007L75.1284 18.2811C74.9312 18.4782 74.5369 18.8726 74.3397 19.0698C66.0578 26.9573 53.2406 35.042 38.6487 29.5208C31.7472 26.9573 24.6484 26.5629 18.1413 28.3376C14.0003 29.5208 10.0566 31.4926 6.11282 34.0561L1.97187 37.4083C1.5775 37.8026 1.38031 37.9998 0.985937 38.3942L0.591598 38.7885V39.3801C0.394411 40.7604 0.394387 42.1408 0.197199 43.3239L0 48.2536L3.35221 44.7042C3.74658 44.3098 4.14098 43.7183 4.73255 43.3239Z" fill="#55B02E"/>
<path d="M56.5929 81.5782L56.1985 82.7614L56.5929 81.5782C56.0013 81.3811 55.607 81.1838 55.0154 80.9866C48.1138 78.4232 41.015 78.0289 34.5079 79.8036C33.1276 80.1979 31.7473 80.5923 30.367 81.1838L25.6344 83.3529L24.4514 83.9445L28.3951 85.3248C29.5782 85.7192 30.7613 86.1136 31.9445 86.5079L32.536 86.7051L33.1276 86.5079C33.7192 86.3107 34.3107 85.9163 34.9023 85.9163C35.2966 85.9163 35.691 85.7192 36.0854 85.522C40.8179 84.3389 45.9447 84.3388 51.466 86.1135C52.0576 86.3107 52.452 86.5079 53.0435 86.7051L54.0295 87.0995L54.621 86.9023C56.0013 86.5079 57.5788 86.1136 58.762 85.522L64.2832 83.5501L58.5648 82.1698C57.9732 81.9726 57.1844 81.7754 56.5929 81.5782Z" fill="#55B02E"/>
<path d="M86.7624 40.7605L83.8046 43.7183C83.4103 44.1126 83.0159 44.507 82.6216 44.9014C74.5369 52.5917 61.5225 60.8736 46.9306 55.3523C40.0291 52.7889 32.9303 52.3945 26.4231 54.1692C20.3103 55.9439 14.789 59.0989 9.85935 63.8314L7.29594 66.592L6.5072 67.578L7.29594 68.7611C7.8875 69.5498 8.2819 70.1414 8.67628 70.9302L9.85935 72.7048L11.2397 70.9302C11.4369 70.733 11.8312 70.3386 12.0284 70.1414C16.7609 65.0145 21.8878 61.8595 27.8034 60.282C33.1275 58.9017 38.8459 59.0989 44.5643 61.2679C49.494 63.0426 54.6209 63.6342 59.7478 63.0427C68.8184 62.0567 77.8891 56.9299 84.5934 51.2114C84.9878 50.817 85.3821 50.6199 85.7765 50.2255L86.3681 49.6339V49.0423C86.3681 47.8592 86.5653 46.4789 86.5653 45.2958L86.7624 40.7605Z" fill="#55B02E"/>
<path d="M11.8311 22.6193L11.2396 21.4362L11.8311 22.6193C13.0143 22.0277 14.3946 21.6333 15.5778 21.239C20.9018 19.8586 26.6202 20.0558 32.3387 22.2249C36.0852 23.6052 39.8318 24.1968 43.9727 24.1968C52.2546 24.1968 60.5364 21.239 68.2268 15.5205L71.1846 13.1543L72.1705 12.3655L70.3958 10.9852C69.8043 10.3936 69.0155 9.80209 68.2268 9.40771L67.0436 8.61897L66.0577 9.40771C65.6633 9.6049 65.4661 9.99926 65.0717 10.1964C54.6208 18.0839 44.1699 20.253 34.3106 16.5065C27.2118 13.943 20.113 13.3515 13.0143 15.5205C12.4227 15.7177 11.8312 15.9149 11.0424 16.1121L10.6481 16.3093L10.0565 16.9008C10.0565 17.098 9.85932 17.098 9.66213 17.2952C8.87338 18.4783 7.88741 19.4643 7.09866 20.6474L3.35211 26.3658L9.46493 23.2108C10.4509 23.2108 11.2396 22.8165 11.8311 22.6193Z" fill="#55B02E"/>
<path d="M28.0006 9.21047L28.5921 9.40767C31.1555 10.3936 35.0993 11.3795 40.029 11.3795C45.1559 11.3795 50.0856 10.1964 55.0153 8.22454L61.128 5.26673L56.9871 3.88645C55.804 3.49207 54.6208 3.0977 53.2405 2.90051H52.649L52.0575 3.09765C51.4659 3.29484 50.8743 3.68926 50.2827 3.88645C44.3671 6.05551 38.4515 6.44989 32.7331 4.87239C32.1415 4.6752 31.5499 4.47798 30.9584 4.28079L30.3668 4.08359L29.7752 4.28079C28.5921 4.67516 27.409 5.06956 26.2259 5.66112L21.6906 7.633L26.4231 9.01327C26.8175 8.81609 27.409 9.01329 28.0006 9.21047Z" fill="#55B02E"/>
<path d="M126.224 79V16.4017H137.678V79H126.224ZM150.569 79V45.3478C150.569 43.5128 150.51 41.6482 150.391 39.7539C150.273 37.8597 150.096 35.9951 149.859 34.1601H160.603L161.49 43.0392H160.425C161.846 39.9019 163.947 37.5045 166.729 35.8471C169.511 34.1305 172.737 33.2721 176.408 33.2721C181.676 33.2721 185.642 34.752 188.306 37.7117C190.969 40.6715 192.301 45.2886 192.301 51.5633V79H181.202V52.096C181.202 48.4852 180.492 45.9102 179.071 44.3711C177.71 42.7729 175.638 41.9737 172.856 41.9737C169.423 41.9737 166.7 43.0392 164.687 45.1703C162.674 47.3013 161.668 50.1426 161.668 53.6943V79H150.569ZM224.314 79.8879C219.697 79.8879 215.701 78.9408 212.327 77.0466C208.953 75.1523 206.319 72.459 204.425 68.9665C202.59 65.474 201.672 61.3304 201.672 56.5356C201.672 51.7409 202.59 47.6268 204.425 44.1935C206.319 40.7011 208.953 38.0077 212.327 36.1135C215.701 34.2192 219.697 33.2721 224.314 33.2721C228.931 33.2721 232.927 34.2192 236.301 36.1135C239.734 38.0077 242.369 40.7011 244.204 44.1935C246.098 47.6268 247.045 51.7409 247.045 56.5356C247.045 61.3304 246.098 65.474 244.204 68.9665C242.369 72.459 239.734 75.1523 236.301 77.0466C232.927 78.9408 228.931 79.8879 224.314 79.8879ZM224.314 71.3639C227.807 71.3639 230.589 70.1504 232.661 67.7234C234.733 65.2372 235.768 61.508 235.768 56.5356C235.768 51.5633 234.733 47.8636 232.661 45.4366C230.589 43.0096 227.807 41.7962 224.314 41.7962C220.822 41.7962 218.04 43.0096 215.968 45.4366C213.896 47.8636 212.86 51.5633 212.86 56.5356C212.86 61.508 213.896 65.2372 215.968 67.7234C218.04 70.1504 220.822 71.3639 224.314 71.3639ZM268.891 79L249.534 34.1601H261.343L275.372 69.2329H272.62L287.004 34.1601H298.103L278.658 79H268.891ZM320.495 79.8879C316.588 79.8879 313.155 78.9704 310.195 77.1354C307.235 75.2411 304.927 72.5478 303.269 69.0553C301.612 65.5628 300.783 61.3896 300.783 56.5356C300.783 51.6817 301.612 47.538 303.269 44.1048C304.927 40.6123 307.235 37.9485 310.195 36.1135C313.155 34.2192 316.588 33.2721 320.495 33.2721C324.283 33.2721 327.598 34.2192 330.439 36.1135C333.34 37.9485 335.264 40.4347 336.211 43.572H335.234L336.211 34.1601H346.866C346.688 35.9951 346.511 37.8597 346.333 39.7539C346.215 41.6482 346.156 43.5128 346.156 45.3478V79H335.145L335.057 69.7656H336.122C335.175 72.8438 333.251 75.3003 330.351 77.1354C327.45 78.9704 324.165 79.8879 320.495 79.8879ZM323.602 71.3639C327.095 71.3639 329.907 70.1504 332.038 67.7234C334.169 65.2372 335.234 61.508 335.234 56.5356C335.234 51.5633 334.169 47.8636 332.038 45.4366C329.907 43.0096 327.095 41.7962 323.602 41.7962C320.11 41.7962 317.298 43.0096 315.167 45.4366C313.036 47.8636 311.971 51.5633 311.971 56.5356C311.971 61.508 313.007 65.2372 315.078 67.7234C317.209 70.1504 320.051 71.3639 323.602 71.3639ZM380.972 79.8879C375.941 79.8879 371.294 79.2664 367.032 78.0233C362.829 76.721 359.218 74.9452 356.199 72.6958L359.751 63.7278C361.764 65.1485 363.865 66.3619 366.055 67.3682C368.246 68.3154 370.584 69.0553 373.07 69.588C375.556 70.0616 378.19 70.2984 380.972 70.2984C385.649 70.2984 389.023 69.5289 391.095 67.9898C393.167 66.4507 394.202 64.4381 394.202 61.9519C394.202 59.7617 393.492 58.1043 392.071 56.9796C390.651 55.7957 388.105 54.819 384.435 54.0495L374.402 52.0072C368.66 50.8233 364.368 48.8403 361.527 46.0582C358.686 43.276 357.265 39.5468 357.265 34.8704C357.265 30.9635 358.301 27.5598 360.373 24.6593C362.445 21.7588 365.345 19.5094 369.074 17.9111C372.804 16.3129 377.154 15.5137 382.127 15.5137C386.566 15.5137 390.68 16.1649 394.469 17.4672C398.257 18.7102 401.424 20.5157 403.97 22.8835L400.418 31.4075C397.873 29.2765 395.09 27.7078 392.071 26.7015C389.053 25.636 385.678 25.1033 381.949 25.1033C377.746 25.1033 374.461 25.932 372.093 27.5894C369.785 29.1877 368.63 31.4075 368.63 34.2488C368.63 36.439 369.341 38.1853 370.761 39.4876C372.241 40.7899 374.727 41.7962 378.22 42.5065L388.165 44.4599C394.084 45.6438 398.464 47.5972 401.306 50.3202C404.147 52.9839 405.568 56.5948 405.568 61.1528C405.568 64.8821 404.562 68.1674 402.549 71.0087C400.536 73.7909 397.695 75.9811 394.025 77.5793C390.355 79.1184 386.004 79.8879 380.972 79.8879ZM435.715 79.8879C431.098 79.8879 427.103 78.9408 423.729 77.0466C420.354 75.1523 417.72 72.459 415.826 68.9665C413.991 65.474 413.074 61.3304 413.074 56.5356C413.074 51.7409 413.991 47.6268 415.826 44.1935C417.72 40.7011 420.354 38.0077 423.729 36.1135C427.103 34.2192 431.098 33.2721 435.715 33.2721C440.333 33.2721 444.328 34.2192 447.702 36.1135C451.136 38.0077 453.77 40.7011 455.605 44.1935C457.499 47.6268 458.446 51.7409 458.446 56.5356C458.446 61.3304 457.499 65.474 455.605 68.9665C453.77 72.459 451.136 75.1523 447.702 77.0466C444.328 78.9408 440.333 79.8879 435.715 79.8879ZM435.715 71.3639C439.208 71.3639 441.99 70.1504 444.062 67.7234C446.134 65.2372 447.17 61.508 447.17 56.5356C447.17 51.5633 446.134 47.8636 444.062 45.4366C441.99 43.0096 439.208 41.7962 435.715 41.7962C432.223 41.7962 429.441 43.0096 427.369 45.4366C425.297 47.8636 424.261 51.5633 424.261 56.5356C424.261 61.508 425.297 65.2372 427.369 67.7234C429.441 70.1504 432.223 71.3639 435.715 71.3639ZM470.603 79V42.5065H461.99V34.1601H473.711L470.603 37.0014V30.1644C470.603 24.6001 472.024 20.3973 474.865 17.5559C477.766 14.7146 481.998 13.2939 487.562 13.2939C488.865 13.2939 490.226 13.3827 491.647 13.5603C493.127 13.7379 494.399 14.0635 495.465 14.537V23.2386C494.695 22.9427 493.778 22.7059 492.712 22.5283C491.647 22.3507 490.611 22.2619 489.605 22.2619C488.066 22.2619 486.674 22.5579 485.431 23.1498C484.247 23.7418 483.3 24.6593 482.59 25.9024C481.939 27.0863 481.613 28.6845 481.613 30.6972V36.1135L480.015 34.1601H493.423V42.5065H481.702V79H470.603ZM517.025 79.8879C511.698 79.8879 507.673 78.4968 504.95 75.7147C502.227 72.9325 500.865 68.7593 500.865 63.195V42.5065H492.252V34.1601H500.865V22.7059L511.964 19.8645V34.1601H523.951V42.5065H511.964V62.4847C511.964 65.5628 512.556 67.7234 513.74 68.9665C514.924 70.2096 516.552 70.8311 518.624 70.8311C519.748 70.8311 520.695 70.7423 521.465 70.5648C522.294 70.3872 523.093 70.1504 523.862 69.8544V78.6448C522.856 79.0592 521.731 79.3552 520.488 79.5328C519.304 79.7695 518.15 79.8879 517.025 79.8879Z" fill="black"/>
</svg>
